<?xml version="1.0" encoding="UTF-8"?>
<svg id="_Слой_1" data-name="Слой 1" xmlns="http://www.w3.org/2000/svg" viewBox="0 0 399.5 399.5">
  <defs>
    <style>
      .cls-1 {
        fill: #fff;
      }

      .cls-2 {
        fill: #c3073f;
      }
    </style>
  </defs>
  <path class="cls-2" d="M191.43,399.5h16.65c90.55,0,135.67,0,163.63-27.97,27.8-27.97,27.8-73.24,27.8-163.46v-16.98c0-89.89,0-135.17-27.8-163.13C343.74,0,298.46,0,208.08,0h-16.65C100.87,0,55.76,0,27.8,27.97,0,55.93,0,101.21,0,191.43v16.98c0,89.89,0,135.17,27.97,163.13,27.97,27.97,73.24,27.97,163.46,27.97Z"/>
  <path class="cls-1" d="M212.57,287.81c-91.05,0-142.99-62.42-145.15-166.29h45.61c1.5,76.24,35.12,108.53,61.76,115.19V121.52h42.95v65.75c26.3-2.83,53.93-32.79,63.25-65.75h42.95c-7.1,34.55-28.27,64.59-58.43,82.9,33.68,16.74,58.59,47.09,68.42,83.4h-47.27c-8.92-31.87-36.08-55.29-68.91-59.43v59.43s-5.16,0-5.16,0Z"/>
</svg>