<?xml version="1.0" encoding="UTF-8"?>
<svg id="_Слой_1" data-name=" Слой 1" xmlns="http://www.w3.org/2000/svg" viewBox="0 0 24 24">
  <defs>
    <style>
      .cls-1 {
        fill: #fff;
      }

      .cls-2 {
        fill: #c3073f;
      }
    </style>
  </defs>
  <path class="cls-2" d="M11.5,24h1c5.44,0,8.15,0,9.83-1.68,1.67-1.68,1.67-4.4,1.67-9.82v-1.02c0-5.4,0-8.12-1.67-9.8-1.68-1.68-4.4-1.68-9.83-1.68h-1C6.06,0,3.35,0,1.67,1.68,0,3.36,0,6.08,0,11.5v1.02c0,5.4,0,8.12,1.68,9.8s4.4,1.68,9.82,1.68Z"/>
  <path class="cls-1" d="M12.77,17.29c-5.47,0-8.59-3.75-8.72-9.99h2.74c.09,4.58,2.11,6.52,3.71,6.92V7.3h2.58v3.95c1.58-.17,3.24-1.97,3.8-3.95h2.58c-.43,2.08-1.7,3.88-3.51,4.98,2.02,1.01,3.52,2.83,4.11,5.01h-2.84c-.54-1.91-2.17-3.32-4.14-3.57v3.57s-.31,0-.31,0Z"/>
</svg>